# xmcd
#
# Track frame offsets:
#	150
#	16329
#	38708
#	57359
#	75130
#	81873
#	95020
#	118993
#	132906
#	140558
#	160164
#	173415
#	192905
#	203814
#	226271
#	236804
#
# Disc length: 3424 seconds
#
# Revision: 1
# Processed by: cddbd v1.5.2PL0 Copyright (c) Steve Scherf et al.
# Submitted via: audiograbber 1.83.01
#
DISCID=cc0d5e10
DTITLE=Saddle Strings - Somewhere In the Middle of Wyoming
DYEAR=2007
DGENRE=Cowboy
TTITLE0=Jornada Del Muerto
TTITLE1=Montana Summers
TTITLE2=Equus Caballus
TTITLE3=Hallie Lonigan
TTITLE4=Cowboy Legacy
TTITLE5=Piece of Wood and Steel
TTITLE6=La Primera
TTITLE7=Belle Starr
TTITLE8=Florida Blues
TTITLE9=Ridin' the Master's Road
TTITLE10=I Want To Be a Cowboy's Sweetheart
TTITLE11=Trail Dust
TTITLE12=Cowboy Coffee
TTITLE13=The Vaquero Song
TTITLE14=Pioneer Trails
TTITLE15=Somewhere In the Middle of Wyoming
EXTD=
EXTT0=
EXTT1=
EXTT2=
EXTT3=
EXTT4=
EXTT5=
EXTT6=
EXTT7=
EXTT8=
EXTT9=
EXTT10=
EXTT11=
EXTT12=
EXTT13=
EXTT14=
EXTT15=
PLAYORDER=
